Coordinates
version=1
nRows=30
nColumns=23
inDegrees=yes

Units are S.I. units (second, meters, Newtons, ...)
If the header above contains a line with 'inDegrees', this indicates whether rotational values are in degrees (yes) or radians (no).

endheader
time	pelvis_tilt	pelvis_list	pelvis_rotation	pelvis_tx	pelvis_ty	pelvis_tz	hip_flexion_r	hip_adduction_r	hip_rotation_r	knee_angle_r	knee_angle_r_beta	ankle_angle_r	subtalar_angle_r	mtp_angle_r	hip_flexion_l	hip_adduction_l	hip_rotation_l	knee_angle_l	knee_angle_l_beta	ankle_angle_l	subtalar_angle_l	mtp_angle_l
      0.00000000	    -12.76153259	      6.00566972	      2.76174463	      2.38916746	      0.95385592	      1.01947966	    -11.46924129	    -10.93889053	    -20.73085460	     59.12512422	      1.03192809	    -19.90689784	    -17.09202391	      0.00000000	     36.28754953	      8.97695836	     -4.61743181	      4.93003874	      0.08604541	     13.66362401	      8.10073266	      0.00000000
      0.00666667	    -12.42402314	      6.11238559	      3.18554856	      2.38957416	      0.95041421	      1.01838099	    -10.41358123	    -11.49658828	    -20.56725592	     63.25177497	      1.10395173	    -20.13282841	    -17.82432263	      0.00000000	     35.58012761	      9.31713257	     -4.28139802	      6.15115269	      0.10735787	     12.70940468	      7.35989030	      0.00000000
      0.01333333	    -12.28350372	      6.17435956	      3.62269332	      2.38978108	      0.94658362	      1.01728810	     -9.16104055	    -12.00883445	    -20.39685444	     67.28776357	      1.17439302	    -20.22657284	    -18.26995924	      0.00000000	     35.20884719	      9.59235039	     -4.05356158	      7.67353164	      0.13392839	     11.67161913	      6.63740322	      0.00000000
      0.02000000	    -12.78953445	      6.22191578	      4.04401839	      2.38944442	      0.94163643	      1.01615418	     -7.05188601	    -12.60400608	    -20.09249951	     71.50819110	      1.24805338	    -19.96431743	    -18.34788825	      0.00000000	     35.79195418	      9.81667602	     -4.06456327	      9.79934418	      0.17103082	     10.62125858	      5.91879464	      0.00000000
      0.02666667	    -13.08155952	      6.31427090	      4.55270875	      2.38907598	      0.93672801	      1.01491958	     -5.19983885	    -13.21054871	    -19.87098883	     75.52818110	      1.31821544	    -19.55997074	    -18.19556972	      0.00000000	     36.46025870	     10.01260860	     -4.78441029	     12.79003610	      0.22322824	      9.72233655	      5.90564779	      0.00000000
      0.03333333	    -13.52430652	      6.41026780	      5.07494455	      2.38837864	      0.93146741	      1.01372129	     -3.06509243	    -13.84033898	    -19.55825719	     79.49293852	      1.38741351	    -19.15474232	    -18.07697024	      0.00000000	     37.31390192	     10.23890962	     -5.12412868	     16.01518266	      0.27951767	      8.53999499	      4.98283602	      0.00000000
      0.04000000	    -14.02228090	      6.47944349	      5.67844562	      2.38740678	      0.92590576	      1.01244095	     -0.76745846	    -14.46630749	    -19.24112620	     83.36633056	      1.45501695	    -18.67135421	    -17.85597663	      0.00000000	     38.35312977	     10.45687264	     -5.46316772	     19.72825707	      0.34432304	      7.57446912	      3.99372780	      0.00000000
      0.04666667	    -14.52763427	      6.44064886	      6.20747153	      2.38610362	      0.92022893	      1.01139050	      1.76627824	    -14.94566104	    -18.71409021	     87.15143874	      1.52107955	    -18.05867103	    -17.34850654	      0.00000000	     39.47661266	     10.46406429	     -5.96708716	     23.80052920	      0.41539760	      6.99170972	      3.22321526	      0.00000000
      0.05333333	    -14.91296755	      6.35294618	      6.73783710	      2.38447890	      0.91471879	      1.01044138	      4.34373443	    -15.34159819	    -18.09875164	     90.77353706	      1.58429710	    -17.39035039	    -16.79600655	      0.00000000	     40.39525357	     10.46260581	     -6.13201063	     27.92946005	      0.48746104	      7.14903881	      2.28301345	      0.00000000
      0.06000000	    -15.24479515	      6.28418044	      7.21722292	      2.38253894	      0.90945509	      1.00961764	      7.06316097	    -15.75110005	    -17.34231662	     94.23963271	      1.64479188	    -16.65065489	    -16.00539677	      0.00000000	     41.07966066	     10.48157578	     -6.14772422	     31.87897331	      0.55639305	      7.84951633	      1.50832871	      0.00000000
      0.06666667	    -15.42264682	      6.19359205	      7.72972194	      2.38035476	      0.90473154	      1.00886667	      9.76761750	    -16.09774890	    -16.54418675	     97.45633495	      1.70093392	    -15.86141812	    -15.10044817	      0.00000000	     41.36299944	     10.56956471	     -5.81352106	     35.53586046	      0.62021777	      9.24138197	      0.86714418	      0.00000000
      0.07333333	    -15.54231851	      6.17581571	      8.13927972	      2.37789286	      0.90055775	      1.00830888	     12.63269233	    -16.48790753	    -15.54111304	    100.45297841	      1.75323522	    -14.94498770	    -13.86844035	      0.00000000	     41.28462466	     10.68141547	     -5.46197080	     38.74877268	      0.67629366	     11.15183704	      0.60779608	      0.00000000
      0.08000000	    -15.48842877	      6.16115848	      8.52462866	      2.37538442	      0.89727469	      1.00789099	     15.42946774	    -16.81650568	    -14.48112406	    103.09195073	      1.79929397	    -13.99335938	    -12.51418928	      0.00000000	     40.66362295	     10.79622066	     -4.95163764	     41.41438454	      0.72281737	     13.49119190	      0.72091255	      0.00000000
      0.08666667	    -15.30012963	      6.14448173	      8.87137908	      2.37290222	      0.89485909	      1.00762521	     18.19873442	    -17.03095310	    -13.33400391	    105.35264766	      1.83875058	    -13.01537678	    -11.09496422	      0.00000000	     39.53040065	     10.85101554	     -4.40953925	     43.50795493	      0.75935706	     16.02918242	      1.20469195	      0.00000000
      0.09333333	    -15.01892880	      6.00599578	      9.18515537	      2.37051924	      0.89338840	      1.00747991	     20.93736217	    -17.03583233	    -12.22743329	    107.17181166	      1.87050098	    -11.99294340	     -9.65130280	      0.00000000	     37.94788180	     10.75091276	     -3.72644335	     45.01657714	      0.78568749	     18.69787151	      2.02598284	      0.00000000
      0.10000000	    -14.69785696	      5.89272373	      9.30802015	      2.36834393	      0.89281238	      1.00760544	     23.72912623	    -16.92290617	    -10.96529635	    108.57361802	      1.89496712	    -10.98924974	     -8.24985520	      0.00000000	     35.94884656	     10.48550929	     -3.23240137	     45.86729894	      0.80053539	     21.25909891	      3.13572212	      0.00000000
      0.10666667	    -14.36016240	      5.67190151	      9.33231025	      2.36648046	      0.89312272	      1.00783335	     26.49717788	    -16.57732131	     -9.75164129	    109.49822972	      1.91110463	     -9.99369832	     -7.06035632	      0.00000000	     33.60508062	     10.01950095	     -2.75925266	     46.10996006	      0.80477062	     23.59787720	      4.39784634	      0.00000000
      0.11333333	    -14.01512868	      5.39336900	      9.19611084	      2.36497578	      0.89429948	      1.00819307	     29.22979607	    -16.02124707	     -8.54200070	    109.95509570	      1.91907845	     -8.99727191	     -6.16644256	      0.00000000	     30.94025537	      9.37994141	     -2.39782526	     45.72209303	      0.79800106	     25.49669487	      5.64149546	      0.00000000
      0.12000000	    -13.99096504	      4.89247263	      9.37901703	      2.36386607	      0.89608311	      1.00785791	     31.99600004	    -15.46216915	     -7.88474252	    109.83685448	      1.91701475	     -8.59702267	     -6.09346057	      0.00000000	     28.30630212	      8.87440634	     -1.33846721	     44.66067590	      0.77947584	     26.57617097	      6.19425182	      0.00000000
      0.12666667	    -13.60298247	      4.56044809	      8.57481411	      2.36312049	      0.89864577	      1.00907332	     34.67312462	    -14.32897282	     -6.45955716	    109.49623180	      1.91106976	     -7.07384058	     -5.34993024	      0.00000000	     25.15599528	      7.63079089	     -2.09830130	     43.29112375	      0.75557265	     27.78054315	      8.18066908	      0.00000000
      0.13333333	    -13.66233630	      4.02580837	      8.11944711	      2.36271472	      0.90147392	      1.00953073	     37.46250001	    -13.23670355	     -5.59463269	    108.64196399	      1.89615998	     -6.04277336	     -5.67174857	      0.00000000	     22.25700939	      6.67689584	     -2.02313146	     41.35200433	      0.72172863	     28.08130929	      8.87245870	      0.00000000
      0.14000000	    -13.79708300	      3.45783290	      7.51796178	      2.36266241	      0.90472042	      1.01016346	     40.15628227	    -11.99464039	     -4.83533088	    107.39329657	      1.87436662	     -5.07591776	     -6.19341963	      0.00000000	     19.30934783	      5.62769505	     -2.29688739	     39.06822257	      0.68186912	     27.97757785	      9.85862182	      0.00000000
      0.14666667	    -14.01759310	      2.77147727	      6.84207324	      2.36294768	      0.90828232	      1.01095638	     42.72207918	    -10.54608202	     -4.27994688	    105.75668255	      1.84580232	     -4.12469955	     -7.07606085	      0.00000000	     16.39279570	      4.45586093	     -2.80754258	     36.54477569	      0.63782666	     27.40014424	     10.89911708	      0.00000000
      0.15333333	    -14.48453729	      2.02840306	      6.28558894	      2.36345018	      0.91188479	      1.01152986	     45.28643988	     -9.16325644	     -4.00213142	    103.77320023	      1.81118402	     -3.22189809	     -8.09526029	      0.00000000	     13.74101969	      3.35555838	     -3.30847279	     33.89068313	      0.59150401	     26.02125209	     11.81882340	      0.00000000
      0.16000000	    -13.69950175	      0.76463199	      5.79344693	      2.36522121	      0.91790090	      1.01212904	     45.87669867	     -7.24202285	     -4.43853573	    100.96766495	      1.76221819	     -3.16645805	    -10.28188249	      0.00000000	      9.63333992	      1.59464245	     -3.88226627	     30.82415398	      0.53798298	     23.98950495	     12.72092322	      0.00000000
      0.16666667	    -13.98203522	      0.02420860	      5.27967038	      2.36641735	      0.92236423	      1.01262322	     47.70246915	     -5.91551972	     -4.41643018	     98.26797637	      1.71509974	     -2.46737928	    -11.70724721	      0.00000000	      6.69740895	      0.71612738	     -4.26742141	     27.68154306	      0.48313407	     20.71254542	     12.51060031	      0.00000000
      0.17333333	    -14.29434403	     -0.64583306	      4.85611631	      2.36782472	      0.92689864	      1.01299803	     49.32116455	     -4.76551808	     -4.47960360	     95.28905233	      1.66310770	     -1.86502320	    -13.15586021	      0.00000000	      3.83995165	      0.01741700	     -4.53111825	     24.46577337	      0.42700830	     16.58014912	     11.80753651	      0.00000000
      0.18000000	    -14.54849700	     -1.33278244	      4.51802397	      2.36943309	      0.93151293	      1.01328298	     50.63934269	     -3.68536189	     -4.65494360	     92.03169639	      1.60625612	     -1.27734199	    -14.43959797	      0.00000000	      1.05335195	     -0.65478597	     -4.78289945	     21.35664218	      0.37274372	     11.82449081	     10.81178939	      0.00000000
      0.18666667	    -15.21003326	     -1.69743541	      4.03967292	      2.37074188	      0.93524094	      1.01388136	     52.35241296	     -2.76719315	     -4.45566065	     88.71447400	      1.54835967	     -0.60589379	    -15.39238850	      0.00000000	     -0.98166089	     -1.03453939	     -5.77897158	     18.83730960	      0.32877307	      6.95162599	     10.46773811	      0.00000000
      0.19333333	    -15.21655103	     -2.42673402	      4.03623118	      2.37277299	      0.94004270	      1.01373307	     52.88139847	     -2.01244923	     -4.95452101	     84.86231662	      1.48112684	     -0.35122663	    -16.49244325	      0.00000000	     -3.62452231	     -1.71949279	     -5.92033044	     16.25999237	      0.28379040	      1.65906690	      8.85513120	      0.00000000
